<?xml version="1.0" standalone="no"?>
<!DOCTYPE svg PUBLIC "-//W3C//DTD SVG 1.1//EN" "http://www.w3.org/Graphics/SVG/1.1/DTD/svg11.dtd" >
<svg xmlns="http://www.w3.org/2000/svg">
<metadata>
This is a custom SVG webfont generated by Font Squirrel.
</metadata>
<defs>
<font id="webfontL90D3Fgq" horiz-adv-x="686" >
<font-face units-per-em="1000" ascent="800" descent="-200" />
<missing-glyph horiz-adv-x="266" />
<glyph unicode=" "  horiz-adv-x="266" />
<glyph unicode="&#x09;" horiz-adv-x="266" />
<glyph unicode="&#xa0;" horiz-adv-x="266" />
<glyph unicode="!" horiz-adv-x="228" d="M206 754q0 12 -7 21t-17 9h-135q-11 0 -18 -9t-7 -21v-198l31 -277q2 -11 9 -18.5t16 -7.5h73q9 0 15.5 7.5t8.5 18.5l31 279v196zM52 218q-10 0 -17 -9t-7 -22v-157q0 -12 7 -21t17 -9h125q10 0 17 9t7 21v157q0 13 -7 22t-17 9h-125z" />
<glyph unicode="&#x22;" horiz-adv-x="330" d="M308 677q0 11 -6.5 19.5t-14.5 8.5h-70q-9 0 -15 -8.5t-6 -19.5v-265q0 -11 6 -19t15 -8h70q8 0 14.5 8t6.5 19v265zM134 677q0 11 -6.5 19.5t-14.5 8.5h-70q-9 0 -15 -8.5t-6 -19.5v-265q0 -11 6 -19t15 -8h70q8 0 14.5 8t6.5 19v265z" />
<glyph unicode="#" horiz-adv-x="719" d="M53 369q-14 0 -22.5 -9t-8.5 -21v-117q0 -12 9 -21t22 -9h67l-19 -158q-2 -14 7.5 -24t23.5 -10h122q11 0 19.5 8t10.5 19l19 165h66l-20 -158q-2 -14 7.5 -24t23.5 -10h123q11 0 19.5 8t10.5 19l19 165h83q13 0 22 9t9 21v117q0 12 -9.5 21t-22.5 9h-62l6 48h88 q13 0 22 9t9 21v117q0 12 -9.5 21t-22.5 9h-67l20 156q2 14 -7.5 24t-23.5 10h-122q-11 0 -19.5 -8t-10.5 -19l-20 -163h-66l21 156q2 14 -8 24t-24 10h-122q-11 0 -19.5 -8t-10.5 -19l-20 -163h-83q-13 0 -22 -9t-9 -21v-117q0 -12 9.5 -21t22.5 -9h62l-6 -48h-87zM329 417 h66l-6 -48h-66z" />
<glyph unicode="$" horiz-adv-x="703" d="M419 843q0 13 -8.5 22t-21.5 9h-83q-13 0 -21.5 -9t-8.5 -22v-49q-51 -7 -91.5 -20.5t-72.5 -36.5q-90 -65 -90 -189q0 -107 75 -165q26 -21 71 -40t108 -35v-109q-16 2 -32 5.5t-33 8.5q-38 11 -74 24.5t-70 30.5q-17 8 -31 -2t-12 -29l13 -158q1 -7 6 -15t11 -11 q14 -6 43.5 -14.5t74.5 -18.5q28 -6 53.5 -10t50.5 -6v-64q0 -13 8.5 -22t21.5 -9h83q13 0 21.5 9t8.5 22v65q102 12 168 57q94 66 94 192q0 98 -67 161q-56 52 -195 84v103q7 -2 15 -4l16 -4q42 -11 77.5 -23.5t65.5 -26.5q17 -8 31 1.5t12 29.5l-12 148q-1 6 -6.5 14 t-11.5 11q-40 19 -115 34q-19 4 -37 6.5t-35 4.5v50zM458 260q16 -10 16 -22q0 -19 -24 -29h1q-7 -3 -15 -5.5t-17 -4.5v76q14 -4 24 -8t15 -7zM253 542h1q-28 12 -28 32q0 19 16 28q11 7 34 10v-78q-13 3 -23 8z" />
<glyph unicode="%" horiz-adv-x="1248" d="M286 805q-117 0 -190 -62q-74 -64 -74 -173q0 -55 18.5 -99t53 -74.5t84 -47t110.5 -16.5q116 0 190 63q75 66 75 174q0 55 -19 98.5t-53.5 74t-84 46.5t-110.5 16zM290 690q36 0 51 -30t15 -93q0 -60 -15.5 -89.5t-54.5 -29.5q-38 0 -52.5 29.5t-14.5 91.5q0 63 14.5 92 t56.5 29zM959 374q-116 0 -190 -63q-74 -65 -74 -173q0 -110 74 -173t191 -63q60 0 107.5 16.5t83.5 47.5q75 64 75 172q0 57 -19 99t-56 74q-74 63 -192 63zM962 259q38 0 52.5 -30.5t14.5 -93.5q0 -60 -15 -88.5t-55 -28.5q-38 0 -52.5 28.5t-14.5 90.5q0 63 14.5 92.5 t55.5 29.5zM922 806q-5 0 -12.5 -3.5t-10.5 -7.5l-721 -846q-14 -17 -5.5 -34t29.5 -17h115q5 0 13 4t10 8l722 845q14 17 6 33.5t-30 16.5z" />
<glyph unicode="&#x26;" horiz-adv-x="986" d="M921 459h-186q-7 0 -15.5 -5.5t-12.5 -10.5q-25 -44 -49 -72l-72 78q10 9 19.5 18.5t18.5 20.5q50 62 50 121q0 94 -82 144q-77 46 -183 46q-57 0 -104 -12t-80 -36t-51 -59.5t-18 -82.5q0 -66 47 -124q3 -3 4.5 -6t4.5 -6q-52 -25 -86.5 -48.5t-52.5 -48.5 q-51 -72 -51 -158q0 -99 80 -165q79 -65 232 -65q57 0 109 11t100 31q14 6 30 14t34 19l49 -53q3 -3 10.5 -6.5t11.5 -3.5h254q10 0 18 5t11 12.5t1.5 16.5t-8.5 17l-147 159l29.5 31.5t29.5 34.5q30 36 50 71t34 70zM443 203h1q-55 -26 -95 -26q-28 0 -49 15.5t-21 40.5 q0 27 28 55h-1q12 10 26 20t32 19l102 -112q-11 -7 -23 -12zM384 621q0 10 9 15t22 5q14 0 23 -6t9 -19q0 -32 -18 -48q-6 -6 -9 -8q-36 33 -36 61z" />
<glyph unicode="'" horiz-adv-x="156" d="M134 677q0 11 -6.5 19.5t-14.5 8.5h-70q-9 0 -15 -8.5t-6 -19.5v-265q0 -11 6 -19t15 -8h70q8 0 14.5 8t6.5 19v265z" />
<glyph unicode="(" horiz-adv-x="347" d="M200 340q0 60 6 111t20 93q22 70 77 83q8 2 15 10.5t7 19.5v119q0 16 -10 24.5t-24 5.5q-67 -16 -118.5 -57t-85.5 -108q-65 -127 -65 -301t66 -301q68 -133 204 -164q13 -3 23 5.5t10 24.5v119q0 11 -6.5 19.5t-16.5 10.5q-53 12 -77 82q-14 42 -20 93t-6 111h1z" />
<glyph unicode=")" horiz-adv-x="346" d="M147 340q0 -120 -27 -204q-22 -70 -76 -82q-9 -2 -15.5 -10.5t-6.5 -19.5v-119q0 -16 9.5 -24.5t23.5 -5.5q135 31 203 163h-1q67 128 67 302t-67 302l1 -1q-67 133 -203 165q-14 3 -23.5 -5.5t-9.5 -24.5v-119q0 -11 6.5 -19.5t15.5 -10.5q53 -12 76 -83q27 -84 27 -204 z" />
<glyph unicode="*" horiz-adv-x="598" d="M504 645q10 11 7.5 24t-15.5 21l-117 67q-13 8 -25 3t-17 -19l-38 -105l-37 105q-5 14 -17 19t-25 -3l-117 -67q-13 -8 -15.5 -21t7.5 -24l73 -87l-111 20q-14 2 -24.5 -6t-10.5 -22v-134q0 -14 10.5 -22.5t24.5 -6.5l111 20q-2 -4 -5 -6.5t-6 -6.5q-16 -18 -24.5 -28.5 l-14.5 -17.5l-11 -13l-12 -15q-9 -11 -6.5 -24.5t14.5 -20.5l117 -67q13 -8 25 -3t17 19l37 105l38 -105q5 -14 17 -19t25 3l117 67q12 7 14.5 20.5t-6.5 24.5q-8 9 -12.5 15t-10.5 13l-14.5 17.5t-24.5 28.5q-4 4 -7 6.5t-5 6.5l112 -20q14 -2 24 6.5t10 22.5v134 q0 14 -10 22t-24 6l-111 -20z" />
<glyph unicode="+" horiz-adv-x="620" d="M23 358v-138q0 -12 9 -21t21 -9h160v-160q0 -13 8.5 -21.5t20.5 -8.5h138q13 0 21.5 8.5t8.5 21.5v160h159q12 0 20.5 9t8.5 21v138q0 12 -9 21t-21 9h-159v157q0 13 -8.5 21.5t-21.5 8.5h-138q-12 0 -20.5 -8.5t-8.5 -21.5v-157h-160q-12 0 -21 -9t-9 -21h1z" />
<glyph unicode="," horiz-adv-x="214" d="M46 198q-10 0 -17 -8t-7 -19v-141q0 -11 7 -19t17 -8h26l-30 -87q-5 -14 2 -25.5t21 -11.5h61q6 0 13 5t9 12l44 127v148q0 11 -7 19t-17 8h-122z" />
<glyph unicode="-" horiz-adv-x="402" d="M50 429q-11 0 -19.5 -6.5t-8.5 -15.5v-98q0 -10 8.5 -16.5t19.5 -6.5h302q12 0 20 6.5t8 16.5v98q0 9 -8 15.5t-20 6.5h-302z" />
<glyph unicode="." horiz-adv-x="251" d="M46 196q-10 0 -17 -7t-7 -18v-146q0 -11 7 -18t17 -7h122q10 0 17 7t7 18v146q0 11 -7 18t-17 7h-122z" />
<glyph unicode="/" horiz-adv-x="612" d="M26 32q-8 -17 0 -30.5t26 -13.5h136q7 0 15 5t11 12l372 750q8 17 0 30.5t-26 13.5h-137q-7 0 -14.5 -5t-11.5 -12z" />
<glyph unicode="0" horiz-adv-x="714" d="M692 393q0 207 -77 304v-1q-79 103 -258 103t-258 -102q-77 -98 -77 -304q0 -103 19.5 -178.5t57.5 -124.5q80 -102 258 -102q180 0 258 102v-1q77 98 77 304zM436 393q0 -122 -14 -166q-9 -27 -65 -27t-65 27q-6 21 -9.5 63t-3.5 103q0 124 13 166q7 27 65 27 q56 0 65 -27q14 -45 14 -166z" />
<glyph unicode="1" horiz-adv-x="436" d="M386 0q12 0 20 9t8 21v724q0 12 -8 21t-20 9h-151q-23 -23 -42.5 -39.5t-36.5 -24.5q-19 -9 -46.5 -17.5t-64.5 -16.5q-9 -2 -16 -10t-7 -19v-157q0 -16 11 -25.5t25 -4.5q34 10 62.5 21t57.5 28v-489q0 -12 8.5 -21t19.5 -9h180z" />
<glyph unicode="2" horiz-adv-x="676" d="M22 30q0 -12 9 -21t21 -9h572q12 0 21 9t9 21v161q0 13 -9 22t-21 9h-205l22.5 21.5t23.5 23.5v-1q20 20 47.5 50.5l62.5 72.5q73 87 73 185q0 107 -84 167q-77 57 -205 57q-95 0 -186 -37q-45 -19 -74 -34.5t-43 -29.5q-3 -2 -6 -9.5t-3 -12.5v-185q0 -11 6 -18.5 t14 -10.5t17.5 -0.5t15.5 11.5q23 30 86 73q60 41 119 41q36 0 56.5 -18t20.5 -50q0 -26 -20 -52q-29 -38 -52 -61h1l-279 -259q-3 -3 -6.5 -10.5t-3.5 -11.5v-94z" />
<glyph unicode="3" horiz-adv-x="687" d="M56 603q0 -13 9 -21.5t21 -8.5h265l-122 -94q-3 -2 -6 -9.5t-3 -11.5v-102q0 -13 8.5 -22t21.5 -9q108 -3 137 -25q26 -20 26 -44q0 -23 -19.5 -35t-51.5 -12q-75 0 -132 28l-53 27.5t-32 17.5q-11 8 -24 4t-19 -18l-59 -142q-3 -8 -1.5 -18.5t8.5 -16.5q11 -11 40 -27 t73 -36q89 -40 201 -40q156 0 238 63.5t82 196.5q0 91 -50.5 148t-148.5 78l145 136q2 2 5.5 9.5t3.5 12.5v123q0 12 -9.5 21t-21.5 9h-503q-12 0 -21 -9t-9 -21z" />
<glyph unicode="4" horiz-adv-x="741" d="M398 784q-5 0 -13 -3.5t-11 -7.5l-352 -439v-184q0 -12 9 -21t21 -9h310v-90q0 -12 9 -21t21 -9h194q12 0 21 9t9 21v90l73 1q13 0 21.5 9t8.5 21v151q0 12 -8.5 21t-21.5 9h-73v422q0 12 -9 21t-21 9h-188zM211 332l151 186v-186h-151z" />
<glyph unicode="5" horiz-adv-x="718" d="M657 755q0 12 -9.5 21t-21.5 9h-475q-11 0 -20 -8t-10 -19l-36 -330q-1 -8 4 -16.5t12 -13.5l128 -81q4 -3 12.5 -4t13.5 1q40 15 96 15q41 0 66 -18t25 -47q0 -32 -30.5 -50t-78.5 -18q-35 0 -68 5.5t-67 18.5l-52.5 20.5l-24.5 9.5q-12 8 -24.5 3.5t-17.5 -18.5 l-55 -147q-4 -11 0.5 -22.5t15.5 -16.5q15 -8 43.5 -18t70.5 -21q81 -22 191 -22q168 0 259.5 66t91.5 199q0 66 -22.5 116.5t-65 85.5t-103.5 53t-138 18q-22 0 -44.5 -1.5t-42.5 -6.5l8 64h339q12 0 21 9t9 21v143z" />
<glyph unicode="6" horiz-adv-x="707" d="M685 252q0 128 -76.5 197t-216.5 69q-70 0 -124 -18q3 16 6.5 29.5t8.5 26.5q24 56 95 56q78 0 122 -16q23 -8 46 -17t46 -20q17 -8 29.5 0.5t12.5 26.5v145q0 7 -5 15t-10 11q-32 17 -96 29.5t-144 12.5q-161 0 -259 -92t-98 -321q0 -215 83 -307q84 -91 249 -91 q160 0 245.5 66t85.5 198zM286 325h-1q28 19 68 19q90 0 90 -87q0 -39 -23.5 -61t-65.5 -22q-61 0 -76 29h1q-9 17 -16 82q4 15 9.5 24.5t13.5 15.5z" />
<glyph unicode="7" horiz-adv-x="696" d="M674 754q0 12 -9 21t-21 9h-592q-12 0 -21 -9t-9 -21v-165q0 -12 9 -21t21 -9h350q-42 -57 -78.5 -112.5t-68.5 -111.5q-80 -138 -142 -293q-7 -17 2 -29.5t26 -12.5h225q9 0 18 6.5t11 15.5q26 89 56 171.5t67 159.5q37 78 76 143t80 117v141z" />
<glyph unicode="8" horiz-adv-x="719" d="M22 240q0 -61 23 -108t66.5 -79t106 -48.5t141.5 -16.5q160 0 249 65.5t89 193.5q0 85 -53 140h1q-25 26 -56 45q38 27 57.5 65.5t19.5 81.5q0 102 -92 164q-86 56 -215 56q-134 0 -217 -56q-90 -59 -90 -163q0 -42 17 -80.5t58 -67.5q-56 -33 -80.5 -79.5t-24.5 -112.5z M359 333q45 0 68.5 -19.5t23.5 -57.5t-23.5 -57.5t-67.5 -19.5q-94 0 -94 77t93 77zM359 607q32 0 51 -12.5t19 -35.5t-19 -35t-51 -12q-33 0 -52 12t-19 35q0 24 19.5 36t51.5 12z" />
<glyph unicode="9" horiz-adv-x="707" d="M22 534q0 -128 77 -197t217 -69q34 0 64 4t56 12q-2 -13 -4.5 -24.5t-6.5 -23.5q-16 -61 -95 -61q-38 0 -68.5 3.5t-53.5 11.5h1q-23 8 -46 17.5t-46 20.5q-17 8 -30 -0.5t-13 -26.5v-145q0 -6 5.5 -14.5t10.5 -11.5q31 -18 94.5 -29.5t144.5 -11.5q162 0 259 91 q50 47 73.5 126.5t23.5 194.5q0 214 -83 306q-84 92 -248 92q-160 0 -246 -66.5t-86 -198.5zM416 460q-30 -18 -62 -18q-89 0 -89 87q0 39 23.5 61t65.5 22q60 0 74 -29q5 -9 8 -26.5t7 -46.5q-5 -19 -11.5 -32t-15.5 -18z" />
<glyph unicode=":" horiz-adv-x="214" d="M46 566q-10 0 -17 -7t-7 -18v-146q0 -11 7 -18t17 -7h122q10 0 17 7t7 18v146q0 11 -7 18t-17 7h-122zM46 196q-10 0 -17 -7t-7 -18v-146q0 -11 7 -18t17 -7h122q10 0 17 7t7 18v146q0 11 -7 18t-17 7h-122z" />
<glyph unicode=";" horiz-adv-x="214" d="M46 566q-10 0 -17 -7t-7 -18v-146q0 -11 7 -18t17 -7h122q10 0 17 7t7 18v146q0 11 -7 18t-17 7h-122zM46 217q-10 0 -17 -8t-7 -19v-141q0 -11 7 -19t17 -8h26l-30 -87q-5 -14 2 -25.5t21 -11.5h61q6 0 13 5t9 12l44 127v148q0 11 -7 19t-17 8h-122z" />
<glyph unicode="&#x3c;" horiz-adv-x="617" d="M576 380q8 2 13.5 11t5.5 17v147q0 17 -12 25.5t-28 2.5l-514 -207q-8 -2 -13.5 -11t-5.5 -17v-120q0 -8 5.5 -17t13.5 -11l514 -206q16 -6 28 2.5t12 25.5v146q0 8 -5.5 17t-13.5 11l-226 92z" />
<glyph unicode="=" horiz-adv-x="620" d="M23 300q0 -9 9 -16t21 -7h516q12 0 20.5 7t8.5 16v108q0 10 -9 16.5t-21 6.5h-516q-12 0 -21 -6.5t-9 -16.5zM22 40q0 -9 9.5 -16t21.5 -7h516q12 0 20.5 7t8.5 16v108q0 10 -9 16.5t-21 6.5h-516q-12 0 -21 -6.5t-9 -16.5v-108z" />
<glyph unicode="&#x3e;" horiz-adv-x="620" d="M42 196q-8 -2 -14 -11t-6 -17v-146q0 -17 13 -25.5t29 -2.5l516 206q6 2 12 11t6 17v120q0 8 -6 16.5t-13 11.5l-516 207q-15 6 -28 -2.5t-13 -25.5v-147q0 -8 6 -17t14 -11l228 -92z" />
<glyph unicode="?" horiz-adv-x="583" d="M290 788q-28 0 -60.5 -7t-71.5 -20q-37 -12 -67.5 -24.5t-53.5 -24.5q-8 -5 -12.5 -16t-1.5 -21l37 -114q5 -15 18 -19.5t26 3.5q35 23 91 46q27 11 49 16.5t40 5.5q23 0 37 -18q17 -19 17 -40q0 -12 -7 -23t-18 -21q-24 -22 -66 -51q-43 -36 -62.5 -69.5t-19.5 -71.5 v-37q0 -12 9.5 -21t21.5 -9h139q11 0 19.5 9t8.5 20l2 22q1 9 4 17t11 17.5t22 20.5t35 26l-2 -2q23 14 43 32t40 40q42 49 42 122q0 87 -74 150q-35 30 -83 46t-112 16h-1zM189 218q-12 0 -21 -9t-9 -22v-157q0 -12 9.5 -21t21.5 -9h151q12 0 20.5 9t8.5 21v157q0 13 -9 22 t-21 9h-151z" />
<glyph unicode="@" horiz-adv-x="930" d="M483 688q-174 0 -295 -123t-121 -281q0 -163 119 -287q120 -123 306 -123q108 0 199 56q90 55 120 113h-97q-26 -29 -90 -53q-66 -23 -145 -23q-116 0 -207 88q-93 88 -93 224q0 132 90 224t214 92q122 0 204 -71q82 -70 82 -166q0 -86 -37 -148q-36 -62 -71 -62l-11 9 q-7 9 -7 20q0 3 0.5 6t1.5 8l61 282h-101l-12 -48q-15 34 -55 51t-78 17q-108 0 -165 -79q-58 -79 -58 -177q0 -95 54 -144q55 -50 125 -50q36 0 64 19q30 20 43 38q9 -34 25 -47q18 -12 34 -12q100 0 190 93t90 219q0 134 -107 234q-107 101 -272 101zM479 381q39 0 61 -25 q22 -23 22 -59q0 -40 -32 -90q-33 -49 -84 -49q-34 0 -60 26q-26 28 -26 90q0 36 36 71q34 36 83 36z" />
<glyph unicode="A" horiz-adv-x="1054" d="M1028 0q20 0 28 13.5t0 30.5l-387 723q-4 7 -12 12t-15 5h-177q-6 0 -15 -5t-12 -11l-411 -723q-10 -17 -1 -31t29 -14h207q8 0 16 5t12 12l51 98h375l51 -98q3 -7 11.5 -12t15.5 -5h234zM535 465l90 -174h-186z" />
<glyph unicode="B" horiz-adv-x="751" d="M462 0q117 0 190 59q77 63 77 164q0 91 -50 149q-27 31 -79 52q51 26 75 68t24 97q0 45 -18.5 79.5t-53.5 62.5q-34 26 -76.5 39.5t-94.5 13.5h-404q-12 0 -21 -9t-9 -21v-724q0 -12 9 -21t21 -9h410zM361 328q42 0 68 -20.5t26 -55.5q0 -33 -27.5 -53t-69.5 -20h-69v149 h72zM351 605q39 0 61.5 -19t22.5 -45q0 -23 -23.5 -42t-61.5 -19h-61v125h62z" />
<glyph unicode="C" horiz-adv-x="871" d="M299 386q0 105 62.5 162t174.5 57q34 0 67.5 -5t67.5 -14q69 -18 113 -34q16 -6 29 3.5t11 27.5l-11 147q-1 8 -7 16t-14 10q-54 18 -130 30.5t-173 12.5q-111 0 -198 -27.5t-147 -80.5t-91 -131t-31 -180q0 -190 131 -292q125 -100 346 -100q95 0 176.5 12t150.5 37 q8 3 14 11.5t6 16.5l3 150q0 17 -13 26t-29 3q-24 -10 -54.5 -19l-68.5 -20h2q-72 -18 -149 -18q-112 0 -176 54q-30 26 -46.5 62.5t-16.5 82.5h1z" />
<glyph unicode="D" horiz-adv-x="913" d="M53 784q-13 0 -22 -9t-9 -21v-724q0 -12 9 -21t22 -9h440q175 0 286 110q112 111 112 282q0 175 -111 283q-112 109 -291 109h-436zM619 391q0 -76 -37 -114.5t-109 -38.5h-168v308h176q68 0 103 -39t35 -116z" />
<glyph unicode="E" horiz-adv-x="714" d="M662 0q13 0 21.5 9t8.5 21v146q0 13 -8.5 22t-21.5 9h-363v84l287 1q12 0 21 9t9 22v144q0 12 -9 21t-21 9h-287v80h336q12 0 21 9t9 22v146q0 12 -9 21t-21 9h-583q-12 0 -21 -9t-9 -21v-724q0 -12 9 -21t21 -9h610z" />
<glyph unicode="F" horiz-adv-x="719" d="M269 0q13 0 21.5 9t8.5 21v247h271q12 0 21 9t9 21l1 145q0 13 -9 21.5t-21 8.5h-272v95h368q13 0 21.5 9t8.5 22v146q0 12 -8.5 21t-21.5 9h-614q-13 0 -22 -9t-9 -21v-724q0 -12 9 -21t22 -9h216z" />
<glyph unicode="G" horiz-adv-x="944" d="M299 387q0 98 69 158q72 60 190 60q38 0 75.5 -4t74.5 -11q76 -15 130 -31q17 -5 29 5.5t10 27.5l-17 139q-1 8 -7.5 15.5t-14.5 9.5q-52 16 -137 29.5t-191 13.5q-218 0 -353 -112q-135 -114 -135 -309q0 -199 131 -294.5t378 -95.5q109 0 202.5 14t166.5 37 q9 3 15.5 11.5t6.5 17.5v351q0 13 -9 21.5t-22 8.5h-320q-13 0 -22 -8.5t-9 -21.5v-133q0 -13 9 -22t22 -9h105v-50q-47 -18 -137 -18q-113 0 -177 54q-63 54 -63 146z" />
<glyph unicode="H" horiz-adv-x="862" d="M52 784q-12 0 -21 -9t-9 -21v-724q0 -12 9 -21t21 -9h220q13 0 22 9t9 21v267h255v-267q0 -12 9 -21t22 -9h220q13 0 22 9t9 21v724q0 12 -9 21t-22 9h-220q-13 0 -22 -9t-9 -21v-251h-255v251q0 12 -9 21t-22 9h-220z" />
<glyph unicode="I" horiz-adv-x="282" d="M234 0q11 0 18.5 9t7.5 21v724q0 12 -7.5 21t-18.5 9h-186q-11 0 -18.5 -9t-7.5 -21v-724q0 -12 7.5 -21t18.5 -9h186z" />
<glyph unicode="J" horiz-adv-x="623" d="M358 792q-12 0 -21 -9t-9 -22v-442q0 -86 -94 -86q-51 0 -95 25q-48 27 -64 46q-8 9 -17.5 10.5t-18 -2.5t-13.5 -12.5t-3 -20.5l29 -228q1 -5 5.5 -12.5t9.5 -10.5q10 -6 32.5 -14t59.5 -20q75 -24 145 -24q131 0 213 76q84 79 84 201v514q0 13 -8.5 22t-20.5 9h-214z " />
<glyph unicode="K" horiz-adv-x="947" d="M269 0q12 0 21 9t9 21v273l303 -295q3 -2 10.5 -5t11.5 -3h269q11 0 18.5 5t11 13t1.5 17t-10 17l-381 372l281 309q7 7 8 16t-2.5 17t-11.5 13t-18 5h-232q-4 0 -12 -3.5t-11 -6.5l-236 -269v249q0 12 -9 21t-21 9h-217q-12 0 -21 -9t-9 -21v-724q0 -12 9 -21t21 -9h217 z" />
<glyph unicode="L" horiz-adv-x="730" d="M300 754q0 12 -9.5 21t-21.5 9h-217q-13 0 -21.5 -9t-8.5 -21v-724q0 -12 9 -21t22 -9h625q12 0 21 9t9 21v172q0 13 -9.5 21.5t-21.5 8.5h-378z" />
<glyph unicode="M" horiz-adv-x="1149" d="M861 784q-7 0 -15 -4.5t-12 -10.5l-259 -425l-262 425q-3 6 -11.5 10.5t-14.5 4.5h-234q-13 0 -22 -9t-9 -21v-724q0 -12 9 -21t22 -9h200q13 0 22 9t9 21v390l216 -403q4 -7 12 -12t15 -5h94q7 0 15 5t12 12l217 404v-391q0 -12 9 -21t22 -9h200q13 0 22 9t9 21v724 q0 12 -9 21t-22 9h-235z" />
<glyph unicode="N" horiz-adv-x="862" d="M469 541l-84.5 113.5l-85.5 116.5q-2 5 -10.5 9t-14.5 4h-222q-12 0 -21 -9t-9 -21v-724q0 -12 9 -21t21 -9h195q13 0 22 9t9 21v362l282 -380q4 -5 12 -8.5t13 -3.5h224q13 0 22 9t9 21v724q0 12 -9 21t-22 9h-195q-13 0 -22 -9t-9 -21v-368l-57 78.5z" />
<glyph unicode="O" horiz-adv-x="984" d="M962 393q0 205 -119 305.5t-351 100.5t-351 -100.5t-119 -305.5t119 -305t351 -100t351 100t119 305zM685 393q0 -86 -49.5 -129.5t-143.5 -43.5t-143 43.5t-49 129.5t49 129.5t143 43.5t143.5 -43.5t49.5 -129.5z" />
<glyph unicode="P" horiz-adv-x="753" d="M399 279q164 -2 248 60.5t84 195.5q0 67 -24.5 114.5t-72.5 77.5t-120 43.5t-167 13.5h-295q-12 0 -21 -9t-9 -21v-724q0 -12 9.5 -21t21.5 -9h212q13 0 22 9t9 21v250zM353 605q54 4 84 -16.5t30 -58.5q0 -78 -121 -73l-51 2v142z" />
<glyph unicode="Q" horiz-adv-x="991" d="M968 41q4 19 -8.5 30.5t-30.5 5.5q-6 -2 -13.5 -3t-27.5 -1q-17 0 -31 2t-27 5l9 9q124 104 124 307q0 206 -120 308t-351 102q-230 0 -350 -102t-120 -308t120 -307t350 -101q23 0 41.5 0.5t32.5 1.5l8.5 -7t6.5 -6q97 -89 256 -89q12 0 24.5 1t24.5 2.5t22 3t15 3.5 q7 2 13 9t8 14zM685 396q0 -86 -49 -130t-144 -44q-94 0 -143 44t-49 130q0 87 49 131t143 44q95 0 144 -44t49 -131z" />
<glyph unicode="R" horiz-adv-x="943" d="M402 277q54 0 62 -6q5 -3 9.5 -8t8.5 -10l-1 2l128 -238q4 -7 11.5 -12t15.5 -5h254q19 0 27.5 14.5t-1.5 31.5l-137 231q-15 20 -37.5 40t-54.5 37q27 9 49.5 20.5t39.5 24.5q69 51 69 165q0 101 -84 163q-78 57 -207 57h-502q-12 0 -21 -9t-9 -21v-724q0 -12 9 -21 t21 -9h222q13 0 22 9t9 21v247h97zM455 605q55 0 84 -17t29 -54q0 -44 -38 -61t-111 -17h-120v149h156z" />
<glyph unicode="S" horiz-adv-x="730" d="M708 254q0 100 -67 164q-60 60 -222 92q-45 8 -78 17.5t-56 17.5q-25 9 -25 25q0 17 24.5 24t69.5 7q59 0 133 -21q37 -11 71 -24t65 -28q17 -9 31 1.5t12 29.5l-20 175q-1 8 -7.5 16t-14.5 10q-19 6 -47.5 12t-66.5 13q-79 14 -149 14q-160 0 -249.5 -65t-89.5 -191 q0 -108 73 -168q67 -56 240 -91q92 -18 118 -34q16 -11 16 -22q0 -21 -27.5 -32t-72.5 -11q-73 0 -163 30q-87 31 -136 55q-17 8 -31 -1.5t-12 -28.5l16 -190q1 -9 8 -17t16 -10q11 -2 31.5 -6.5t49.5 -9.5v1q8 -2 15.5 -3t17.5 -3q43 -7 86.5 -10.5t87.5 -3.5 q82 0 147.5 17.5t111 51t70 83t24.5 114.5z" />
<glyph unicode="T" horiz-adv-x="797" d="M515 0q13 0 21.5 9t8.5 21v557h206q13 0 22 9t9 22v136q0 12 -9 21t-22 9h-692q-13 0 -21.5 -9t-8.5 -21v-136q0 -13 8.5 -22t21.5 -9h207v-557q0 -12 9 -21t21 -9h219z" />
<glyph unicode="U" horiz-adv-x="855" d="M566 346q0 -69 -32 -99.5t-104 -30.5q-76 0 -108.5 29t-32.5 98v412q0 12 -9 21t-22 9h-205q-13 0 -22 -9t-9 -21v-498q0 -155 107 -215q97 -54 297 -54q194 0 296 54q111 60 111 205v508q0 12 -9 21t-21 9h-206q-13 0 -22 -9t-9 -21v-409z" />
<glyph unicode="V" horiz-adv-x="964" d="M692 785q-8 0 -16.5 -5.5t-11.5 -12.5l-174 -388l-181 388q-4 8 -12 13t-16 5h-227q-18 0 -27 -13t-1 -30l361 -736q3 -7 12 -12.5t16 -5.5h131q7 0 15.5 5t12.5 12l364 736q8 17 -0.5 30.5t-27.5 13.5h-218z" />
<glyph unicode="W" horiz-adv-x="1341" d="M1074 785q-9 0 -18 -6t-12 -14l-120 -330l-157 332q-2 8 -11 13t-17 5h-136q-8 0 -17 -5.5t-12 -12.5l-162 -333l-117 331q-3 8 -12.5 14t-17.5 6h-210q-17 0 -26.5 -12t-3.5 -29l268 -736q3 -8 12 -14t17 -6h114q8 0 17 5.5t12 12.5l201 438l210 -438q4 -8 12 -13t16 -5 h115q8 0 17 6t12 14l268 736q6 17 -3 29t-26 12h-213z" />
<glyph unicode="X" horiz-adv-x="1036" d="M740 784q-5 0 -13 -3.5t-10 -6.5l-176 -198l-182 198q-2 3 -9.5 6.5t-12.5 3.5h-263q-11 0 -18.5 -5t-11 -12.5t-2 -16.5t8.5 -17l293 -323l-313 -360q-7 -8 -8 -16.5t2.5 -16t11 -12.5t18.5 -5h236q5 0 13 3.5t10 7.5l204 234l186 -233q3 -4 11.5 -8t13.5 -4h253 q21 0 28.5 16.5t-4.5 32.5l-290 361l281 323q14 16 6 33.5t-30 17.5h-233z" />
<glyph unicode="Y" horiz-adv-x="1043" d="M751 784q-5 0 -14 -4t-11 -9l-185 -249l-203 251q-3 4 -11 7.5t-13 3.5h-259q-21 0 -29.5 -17t5.5 -33l349 -420v-284q0 -12 9 -21t21 -9h224q13 0 22 9t9 21v284l348 420q13 16 4.5 33t-29.5 17h-237z" />
<glyph unicode="Z" horiz-adv-x="830" d="M808 193q0 12 -9 21t-21 9h-363l373 365q3 3 6 11t3 12v143q0 12 -9 21t-21 9h-701q-12 0 -21 -9t-9 -21v-146q0 -13 9 -22t21 -9h343l-378 -374q-2 -3 -5.5 -10.5t-3.5 -10.5v-152q0 -12 9 -21t22 -9h725q12 0 21 9t9 21v163z" />
<glyph unicode="[" horiz-adv-x="329" d="M281 657q11 0 18.5 9t7.5 22v88q0 13 -7.5 22t-18.5 9h-232q-11 0 -19 -9t-8 -22v-871q0 -13 8 -22t19 -9h232q11 0 18.5 9t7.5 22v88q0 12 -7.5 21t-18.5 9h-93v634h93z" />
<glyph unicode="\" horiz-adv-x="558" d="M343 6q3 -7 11 -12.5t16 -5.5h135q17 0 26 13t1 30l-319 749q-3 8 -11 13.5t-16 5.5h-134q-17 0 -25.5 -13t-1.5 -30z" />
<glyph unicode="]" horiz-adv-x="329" d="M22 -7v-88q0 -13 8 -22t19 -9h231q11 0 19 9t8 22v871q0 13 -8 22t-19 9h-231q-11 0 -19 -9t-8 -22v-88q0 -13 8 -22t19 -9h92v-634h-92q-11 0 -19 -9t-8 -21z" />
<glyph unicode="^" horiz-adv-x="600" d="M201 310q8 0 16 5.5t11 11.5l72 158l72 -158q3 -6 11 -11.5t16 -5.5h148q18 0 26.5 12.5t0.5 28.5l-182 369q-3 5 -11.5 10.5t-15.5 5.5h-130q-7 0 -16 -5.5t-11 -10.5l-182 -369q-8 -16 0.5 -28.5t25.5 -12.5h149z" />
<glyph unicode="_" horiz-adv-x="456" d="M443 -143q12 0 20.5 4t8.5 10v21q0 6 -8.5 10.5t-20.5 4.5h-442q-12 0 -20.5 -4.5t-8.5 -10.5v-21q0 -6 8.5 -10t20.5 -4h442z" />
<glyph unicode="`" horiz-adv-x="415" d="M363 528q18 0 26 13t-2 27l-129 194q-3 4 -10.5 8t-13.5 4h-183q-19 0 -26.5 -14.5t5.5 -28.5l187 -194q3 -2 10 -5.5t12 -3.5h124z" />
<glyph unicode="a" d="M467 19q36 -30 88 -30l106 88q9 7 11 16t-1 17t-10.5 13.5t-18.5 5.5l-7 5l-7 6v205q0 66 -17 112.5t-52 75.5t-89 42.5t-128 13.5q-46 0 -87 -8t-79 -22q-38 -15 -61.5 -27.5t-34.5 -22.5q-5 -5 -7.5 -15t0.5 -18l38 -87q5 -12 17.5 -16.5t23.5 1.5q17 8 36 16l42 17 q25 10 49 14t50 4q35 0 55 -15t21 -46l-84 4q-63 3 -114.5 -11.5t-92.5 -41.5q-83 -57 -83 -146q0 -83 54.5 -132t158.5 -49q53 0 104 15t96 38q5 -6 10.5 -11zM375 157q-33 -13 -72 -13q-51 0 -51 25q0 49 153 49h3v-47l-15 -6.5t-18 -7.5z" />
<glyph unicode="b" d="M255 755q0 12 -9 21t-21 9h-173q-12 0 -21 -9t-9 -21v-725q0 -12 9 -21t21 -9h92q7 0 14.5 5t11.5 11l28 51q13 -10 26 -19l28 -20q58 -40 147 -40q121 0 195 87q70 83 70 221t-68 221q-35 44 -82 65.5t-109 21.5q-60 0 -118 -26v1l-16.5 -7.5l-15.5 -7.5v191zM278 417 q27 15 55 15q54 0 82 -38t28 -110q0 -57 -23.5 -93t-62.5 -36q-35 0 -67 20h1l-21 14.5t-15 11.5v204q3 2 9 4.5t14 7.5z" />
<glyph unicode="c" horiz-adv-x="545" d="M520 179q2 14 -6.5 24t-22.5 10q-7 0 -11 -1.5t-9 -4.5h2q-6 -2 -16.5 -6l-26.5 -10q-41 -16 -75 -16q-62 0 -91 26t-29 81q0 62 27 97t75 35q39 0 79 -16q23 -9 38 -16t23 -13q17 -11 32 -1.5t13 29.5l-13 132q0 6 -6 14t-11 10q-26 12 -65.5 24t-101.5 12 q-139 0 -221 -83q-41 -42 -61.5 -97.5t-20.5 -127.5q0 -134 81 -214q82 -79 215 -79q52 0 103 13q52 14 66 22q4 2 9.5 9.5t5.5 12.5z" />
<glyph unicode="d" d="M515 16q3 -6 11 -11t16 -5h92q12 0 21 9t9 21v725q0 12 -9 21t-21 9h-172q-13 0 -21.5 -9t-8.5 -21v-191q-9 5 -18 8.5t-19 8.5q-53 23 -107 23q-125 0 -197 -86q-69 -83 -69 -222t71 -222q74 -86 196 -86q87 0 141 36l30 21.5l28 21.5zM397 176q-33 -21 -60 -21 q-45 0 -69.5 34.5t-24.5 94.5q0 69 28 108.5t82 39.5q31 0 53 -14l14.5 -7.5t11.5 -5.5v-206q-5 -4 -13.5 -9.5z" />
<glyph unicode="e" horiz-adv-x="591" d="M563 74l-37 94q-5 11 -16.5 16t-22.5 0q-4 -2 -14 -5l-28 -8q-33 -9 -69 -9q-73 0 -103 30q-10 9 -18 26h285q12 0 20.5 9t8.5 21v44q0 132 -72 213q-75 84 -196 84t-200 -83q-79 -82 -79 -208q0 -146 88 -228t235 -82q29 0 58 3.5t56 10t50.5 15.5t41.5 21zM260 398 q13 27 40 27q20 0 33 -19.5t17 -54.5h-104q4 28 14 47z" />
<glyph unicode="f" horiz-adv-x="506" d="M326 0q12 0 20.5 9t8.5 21v380h100q12 0 20.5 8.5t8.5 21.5v96q0 12 -8.5 21t-20.5 9h-100v23q0 23 19 23q20 0 36 -4t25 -7q1 0 4 -0.5t4 -0.5q12 0 20.5 9t8.5 22v108q0 8 -6 17t-12 11q-21 8 -50 12.5t-69 4.5q-94 0 -149 -44.5t-55 -131.5v-42h-80q-12 0 -20.5 -9 t-8.5 -21v-96q0 -13 8.5 -21.5t20.5 -8.5h80v-380q0 -12 8.5 -21t20.5 -9h166z" />
<glyph unicode="g" horiz-adv-x="643" d="M621 81v485q0 13 -9 21.5t-21 8.5h-103q-7 0 -15.5 -5.5t-11.5 -11.5l-18 -38q-12 11 -30 21.5t-29.5 16l-13.5 6.5q-48 15 -100 15q-113 0 -182 -82q-66 -81 -66 -208q0 -57 16 -104t51 -87q69 -79 174 -79q38 0 70.5 10t64.5 29v-5q0 -29 -29.5 -44t-83.5 -15 q-32 0 -61.5 5t-58.5 16q-30 11 -48.5 18.5t-26.5 10.5q-8 4 -17 4q-8 0 -14 -4t-10 -11.5t-3 -16.5l7 -102q0 -5 5.5 -13.5t10.5 -11.5q8 -5 30.5 -12t57.5 -15l74.5 -18.5t82.5 -9.5q71 0 128 15t96.5 43.5t61 70.5t21.5 97zM367 217q-28 -17 -42 -17q-38 0 -60.5 30 t-22.5 79q0 57 18.5 84t63.5 27q24 0 53 -19q20 -14 23 -8v-154q-8 -5 -16 -11t-17 -11z" />
<glyph unicode="h" horiz-adv-x="637" d="M585 0q12 0 21 9t9 21v353q0 107 -48.5 163.5t-147.5 56.5q-46 0 -88 -12.5t-79 -35.5v199q0 12 -9 21t-21 9h-171q-12 0 -20.5 -9t-8.5 -21v-724q0 -12 8.5 -21t20.5 -9h171q12 0 21 9t9 21v353l14 7t19 9h-1q33 16 66 16q17 0 25.5 -18.5t8.5 -47.5v-319q0 -12 9 -21 t21 -9h171z" />
<glyph unicode="i" horiz-adv-x="258" d="M210 0q10 0 17 9t7 21v530q0 6 -5 11.5t-12 9.5t-14.5 6.5t-12.5 2.5h-141q-11 0 -18 -9t-7 -21v-530q0 -12 7 -21t18 -9h161zM34 719q0 -44 25.5 -69.5t69.5 -25.5q45 0 70 25.5t25 69.5t-25 69.5t-70 25.5q-44 0 -69.5 -25.5t-25.5 -69.5z" />
<glyph unicode="j" horiz-adv-x="298" d="M75 597q-11 0 -19 -9t-8 -22v-505q0 -33 -11.5 -48t-43.5 -22l-45 -9q-16 -3 -24 -13.5t-3 -27.5l35 -105q3 -8 10.5 -14.5t15.5 -6.5h65q215 0 215 223v528q0 13 -8 22t-19 9h-160zM48 719q0 -44 28.5 -70t78.5 -26t78.5 26t28.5 70q0 45 -28.5 70.5t-78.5 25.5 t-78.5 -25.5t-28.5 -70.5z" />
<glyph unicode="k" horiz-adv-x="698" d="M53 784q-13 0 -22 -9t-9 -21v-724q0 -12 9.5 -21t21.5 -9h173q12 0 21 9t9 21v186l183 -206q3 -3 10.5 -6.5t11.5 -3.5h184q21 0 28.5 17t-6.5 33l-230 273l227 215q8 7 9.5 16.5t-1.5 17t-10.5 13t-18.5 5.5h-206l-182 -181v345q0 12 -9 21t-21 9h-172z" />
<glyph unicode="l" horiz-adv-x="268" d="M47 784q-11 0 -18 -9t-7 -21v-724q0 -12 7 -21t18 -9h161q10 0 17 9t7 21v724q0 12 -7 21t-17 9h-161z" />
<glyph unicode="m" horiz-adv-x="1009" d="M956 0q13 0 22 8.5t9 21.5v343q0 215 -203 215q-38 0 -73.5 -9t-70.5 -26l-34.5 -18.5l-29.5 -16.5q-21 31 -58.5 50.5t-87.5 19.5q-57 0 -107 -17t-93 -47l-24 38q-4 5 -12.5 9t-14.5 4h-126q-13 0 -22 -8.5t-9 -20.5v-516q0 -13 9 -21.5t22 -8.5h178q13 0 22 8.5 t9 21.5v343q5 4 13 8t19 9h-1q33 15 64 15q14 0 21 -18t7 -47v-310q0 -13 9 -21.5t22 -8.5h178q13 0 22 8.5t9 21.5v344q5 3 13.5 6.5t19.5 8.5q16 8 31 12t30 4q14 0 21 -18t7 -47v-310q0 -13 9 -21.5t22 -8.5h178z" />
<glyph unicode="n" horiz-adv-x="637" d="M585 0q12 0 21 8.5t9 21.5v343q0 105 -48.5 160t-147.5 55q-55 0 -105.5 -17t-92.5 -47l-23 38q-4 5 -12 9t-13 4h-122q-12 0 -20.5 -8.5t-8.5 -20.5v-516q0 -13 8.5 -21.5t20.5 -8.5h171q12 0 21 8.5t9 21.5v343q6 4 14 7.5l19 8.5h-1q17 8 33 12t33 4t25.5 -18t8.5 -47 v-310q0 -13 9 -21.5t21 -8.5h171z" />
<glyph unicode="o" horiz-adv-x="681" d="M659 288q0 140 -87 221q-88 80 -232 80q-143 0 -231 -80q-87 -81 -87 -221q0 -139 87 -220q86 -80 231 -80q146 0 232 80q87 81 87 220zM447 288q0 -56 -28 -87.5t-79 -31.5q-50 0 -78 31.5t-28 87.5t28 87.5t78 31.5q51 0 79 -31.5t28 -87.5z" />
<glyph unicode="p" d="M399 22q116 0 191 80q74 80 74 204q0 129 -77 209v-1q-77 84 -198 84q-50 0 -95 -15t-87 -50l-23 38q-4 5 -11.5 10t-14.5 5h-106q-12 0 -21 -9t-9 -22v-637q0 -13 9 -22t21 -9h173q12 0 21 9t9 22v138q33 -18 68.5 -26t75.5 -8zM344 428q45 0 72.5 -37t27.5 -96 q0 -53 -24 -83.5t-67 -30.5q-30 0 -62 16q-24 12 -37 22v170q15 15 38 27t52 12z" />
<glyph unicode="q" horiz-adv-x="687" d="M463 -113h172q12 0 21 9t9 22v647q0 12 -9 21t-21 9h-103q-7 0 -15 -5t-11 -10l-28 -47q-41 35 -85.5 50t-92.5 15q-122 0 -201 -85v1q-77 -83 -77 -212q0 -121 74 -200q77 -80 192 -80q40 0 75 8t70 27v-139q0 -13 8.5 -22t21.5 -9zM397 198q-31 -17 -62 -17 q-43 0 -67.5 30t-24.5 82q0 60 27 97.5t72 37.5q27 0 49.5 -12t39.5 -28v-170q-6 -5 -14.5 -9.5z" />
<glyph unicode="r" horiz-adv-x="480" d="M215 0q12 0 20.5 8.5t8.5 21.5v292q9 13 33 37q22 22 40 22q22 0 48 -34q12 -16 29 -12t22 23l42 162q-4 9 -12.5 20.5t-21 22t-28.5 18t-34 7.5q-41 0 -77.5 -26.5t-70.5 -75.5l-21 69q-2 8 -10 14t-16 6h-117q-11 0 -19.5 -8.5t-8.5 -20.5v-516q0 -13 8.5 -21.5 t19.5 -8.5h165z" />
<glyph unicode="s" horiz-adv-x="529" d="M507 173q0 66 -40 108.5t-112 69.5q-62 23 -88.5 36.5t-26.5 27.5q0 7 9 12.5t24 5.5q40 0 84 -22q23 -11 36.5 -18.5t17.5 -9.5q15 -11 30 -3.5t15 27.5v118q0 8 -5 17t-12 11q-14 6 -33 12.5t-41.5 11.5t-47 8.5t-48.5 3.5q-51 0 -94 -11.5t-75 -34.5q-37 -26 -54 -62 t-17 -84q0 -94 67 -137q60 -38 98 -50v1q47 -17 74.5 -28t27.5 -24q0 -8 -11 -11.5t-30 -3.5q-59 0 -115 22l-49 18.5t-28 11.5q-17 8 -29.5 -2t-10.5 -28l13 -123q1 -8 7 -15t13 -9q45 -15 98.5 -23.5t114.5 -8.5q112 0 175 48t63 138z" />
<glyph unicode="t" horiz-adv-x="520" d="M378 196v212h112q12 0 20.5 9t8.5 22v107q0 13 -8.5 21.5t-20.5 8.5h-112l1 153q0 14 -10 23.5t-24 6.5l-167 -29q-10 -1 -17.5 -10t-7.5 -20v-124h-81q-11 0 -20 -8.5t-9 -21.5v-107q0 -13 9 -22t20 -9h81v-255q0 -97 48.5 -138t155.5 -41q20 0 40 3t43 8l36.5 9t25.5 9 q7 2 12 10.5t5 16.5v119q0 17 -12.5 26t-27.5 2q-11 -5 -31 -12t-45 -7q-11 0 -18 9.5t-7 28.5z" />
<glyph unicode="u" horiz-adv-x="637" d="M615 546q0 12 -8.5 20.5t-20.5 8.5h-171q-12 0 -21 -8.5t-9 -20.5v-344q-10 -5 -21.5 -9.5t-24.5 -10.5h1q-16 -6 -28.5 -8.5t-20.5 -2.5q-38 0 -38 66v309q0 12 -9 20.5t-21 8.5h-171q-12 0 -21 -8.5t-9 -20.5v-353q0 -100 48.5 -152.5t145.5 -52.5q57 0 103.5 16 t91.5 45l16 -32q2 -7 10.5 -12t16.5 -5h132q12 0 20.5 8.5t8.5 21.5v516z" />
<glyph unicode="v" d="M661 534q7 16 -1.5 28.5t-25.5 12.5h-159q-8 0 -16.5 -5.5t-11.5 -13.5l-98 -251l-91 251q-2 7 -11 13t-17 6h-178q-17 0 -25.5 -12.5t-1.5 -28.5l231 -528q3 -7 11 -12.5t16 -5.5h119q8 0 16.5 5.5t10.5 12.5z" />
<glyph unicode="w" horiz-adv-x="1147" d="M675 559q-4 6 -12.5 11t-15.5 5h-111q-8 0 -16.5 -5t-11.5 -11l-135 -243l-89 240q-3 7 -12 13t-18 6h-193q-18 0 -27 -12.5t-1 -28.5l233 -528q2 -7 11 -12.5t17 -5.5h93q8 0 16 5t12 11l164 294l163 -294q3 -6 11.5 -11t16.5 -5h93q8 0 16 5.5t12 12.5l238 528 q7 16 -2 28.5t-26 12.5h-178q-8 0 -17.5 -5.5t-11.5 -13.5l-93 -238z" />
<glyph unicode="x" horiz-adv-x="683" d="M652 527q12 16 4 31.5t-28 15.5h-174q-5 0 -13.5 -4t-10.5 -9l-80 -113l-77 113q-3 5 -11 9t-14 4h-189q-20 0 -27.5 -15.5t3.5 -31.5l170 -243l-176 -237q-11 -16 -3 -31.5t28 -15.5h171q5 0 13.5 4t10.5 9l86 119l81 -119q3 -5 11 -9t13 -4h190q20 0 27.5 15t-3.5 32 l-172 247z" />
<glyph unicode="y" horiz-adv-x="723" d="M523 578q-8 0 -16.5 -5.5t-11.5 -13.5l-97 -231l-106 232q-2 7 -10.5 12.5t-16.5 5.5h-198q-19 0 -27 -13.5t1 -30.5l238 -458l-67 -153q-8 -16 1 -29t26 -13h164q8 0 16.5 5.5t11.5 12.5l281 637q7 16 -1 29t-26 13h-162z" />
<glyph unicode="z" horiz-adv-x="567" d="M65 574q-12 0 -20.5 -8.5t-8.5 -21.5v-136q0 -12 8.5 -21t20.5 -9h153l-196 -224v-124q0 -13 8.5 -21.5t20.5 -8.5h464q12 0 21 8.5t9 21.5v136q0 12 -9 21t-21 9h-177l196 218v130q0 13 -8.5 21.5t-20.5 8.5h-440z" />
<glyph unicode="{" horiz-adv-x="378" d="M22 296q0 -13 8 -22t19 -9q20 -1 31.5 -11t11.5 -25v-201q0 -60 36 -106q37 -48 122 -48h79q11 0 19 9t8 22v88q0 12 -8 21t-19 9h-47q-19 0 -19 29v181q0 73 -43 107q43 34 43 107v181q0 17 5.5 23t13.5 6h47q11 0 19 9t8 22v88q0 13 -8 22t-19 9h-79q-84 0 -122 -49 q-36 -47 -36 -105v-202q0 -15 -11.5 -25t-31.5 -11q-11 0 -19 -9t-8 -22v-88z" />
<glyph unicode="|" horiz-adv-x="199" d="M22 18q0 -12 7 -21t17 -9h108q9 0 16 9t7 21v737q0 12 -7.5 21t-16.5 9h-108q-10 0 -16.5 -9t-6.5 -21v-737z" />
<glyph unicode="}" horiz-adv-x="377" d="M355 384q0 13 -8 22t-19 9q-20 1 -31.5 11t-11.5 25v202q0 59 -36 104q-38 50 -121 50h-78q-11 0 -19.5 -9t-8.5 -22v-88q0 -13 8.5 -22t19.5 -9h46q8 0 13.5 -6t5.5 -23v-181q0 -74 42 -107q-42 -33 -42 -107v-181q0 -29 -19 -29h-46q-11 0 -19.5 -9t-8.5 -21v-88 q0 -13 8.5 -22t19.5 -9h78q83 0 121 49q36 46 36 105v201q0 15 11.5 25t31.5 11q11 0 19 9t8 22v88z" />
<glyph unicode="~" horiz-adv-x="593" d="M190 193q19 0 84 -28q38 -17 72.5 -25t63.5 -8q55 0 102 36q38 31 56 55q2 4 2.5 11.5t-1.5 10.5l-47 110q-7 17 -23.5 19t-27.5 -12q-17 -22 -33 -37.5t-34 -15.5q-20 0 -85 28q-77 33 -136 33q-57 0 -101 -35q-20 -16 -33 -29.5t-23 -25.5q-2 -4 -3 -11.5t1 -12.5 l48 -110q7 -16 24 -17t28 13q16 22 32 36.5t34 14.5z" />
<glyph unicode="&#xad;" horiz-adv-x="402" d="M50 429q-11 0 -19.5 -6.5t-8.5 -15.5v-98q0 -10 8.5 -16.5t19.5 -6.5h302q12 0 20 6.5t8 16.5v98q0 9 -8 15.5t-20 6.5h-302z" />
<glyph unicode="&#x2000;" horiz-adv-x="437" />
<glyph unicode="&#x2001;" horiz-adv-x="874" />
<glyph unicode="&#x2002;" horiz-adv-x="437" />
<glyph unicode="&#x2003;" horiz-adv-x="874" />
<glyph unicode="&#x2004;" horiz-adv-x="291" />
<glyph unicode="&#x2005;" horiz-adv-x="218" />
<glyph unicode="&#x2006;" horiz-adv-x="145" />
<glyph unicode="&#x2007;" horiz-adv-x="145" />
<glyph unicode="&#x2008;" horiz-adv-x="109" />
<glyph unicode="&#x2009;" horiz-adv-x="174" />
<glyph unicode="&#x200a;" horiz-adv-x="48" />
<glyph unicode="&#x2010;" horiz-adv-x="402" d="M50 429q-11 0 -19.5 -6.5t-8.5 -15.5v-98q0 -10 8.5 -16.5t19.5 -6.5h302q12 0 20 6.5t8 16.5v98q0 9 -8 15.5t-20 6.5h-302z" />
<glyph unicode="&#x2011;" horiz-adv-x="402" d="M50 429q-11 0 -19.5 -6.5t-8.5 -15.5v-98q0 -10 8.5 -16.5t19.5 -6.5h302q12 0 20 6.5t8 16.5v98q0 9 -8 15.5t-20 6.5h-302z" />
<glyph unicode="&#x2013;" horiz-adv-x="544" d="M51 364q-12 0 -20.5 -6.5t-8.5 -15.5v-98q0 -10 8.5 -16.5t20.5 -6.5h442q12 0 20.5 6.5t8.5 16.5v98q0 9 -8.5 15.5t-20.5 6.5h-442z" />
<glyph unicode="&#x2014;" horiz-adv-x="1044" d="M53 392q-13 0 -22 -6.5t-9 -15.5v-98q0 -10 9 -16.5t22 -6.5h938q13 0 22 6.5t9 16.5v98q0 9 -9 15.5t-22 6.5h-938z" />
<glyph unicode="&#x2018;" horiz-adv-x="214" d="M22 512q0 -11 7 -19t17 -8h122q10 0 17 8t7 19v141q0 11 -7 19t-17 8h-27l31 87q5 14 -2 26t-21 12h-61q-7 0 -13.5 -5.5t-8.5 -12.5l-44 -129v-146z" />
<glyph unicode="&#x2019;" horiz-adv-x="214" d="M192 777q0 11 -7 19.5t-17 8.5h-122q-10 0 -17 -8.5t-7 -19.5v-141q0 -11 7 -19t17 -8h26l-30 -87q-5 -14 2 -25.5t21 -11.5h61q6 0 13 5t9 12l44 129v146z" />
<glyph unicode="&#x201c;" horiz-adv-x="436" d="M242 512q0 -11 7 -19t17 -8h122q10 0 17 8t7 19v141q0 11 -7 19t-17 8h-27l31 87q5 14 -2 26t-21 12h-61q-7 0 -13.5 -5.5t-8.5 -12.5l-44 -129v-146zM22 512q0 -11 7 -19t17 -8h122q10 0 17 8t7 19v141q0 11 -7 19t-17 8h-27l31 87q5 14 -2 26t-21 12h-61 q-7 0 -13.5 -5.5t-8.5 -12.5l-44 -129v-146z" />
<glyph unicode="&#x201d;" horiz-adv-x="436" d="M412 777q0 11 -7 19.5t-17 8.5h-122q-10 0 -17 -8.5t-7 -19.5v-141q0 -11 7 -19t17 -8h26l-30 -87q-5 -14 2 -25.5t21 -11.5h61q6 0 13 5t9 12l44 129v146zM192 777q0 11 -7 19.5t-17 8.5h-122q-10 0 -17 -8.5t-7 -19.5v-141q0 -11 7 -19t17 -8h26l-30 -87 q-5 -14 2 -25.5t21 -11.5h61q6 0 13 5t9 12l44 129v146z" />
<glyph unicode="&#x2026;" horiz-adv-x="884" d="M381 196q-11 0 -18 -7t-7 -18v-146q0 -11 7.5 -18t17.5 -7h122q10 0 17 7t7 18v146q0 11 -7.5 18t-17.5 7h-121zM716 196q-11 0 -18 -7t-7 -18v-146q0 -11 7.5 -18t17.5 -7h122q10 0 17 7t7 18v146q0 11 -7.5 18t-17.5 7h-121zM46 196q-10 0 -17 -7t-7 -18v-146 q0 -11 7.5 -18t17.5 -7h122q10 0 17 7t7 18v146q0 11 -7.5 18t-17.5 7h-122z" />
<glyph unicode="&#x202f;" horiz-adv-x="174" />
<glyph unicode="&#x205f;" horiz-adv-x="218" />
</font>
</defs>
</svg>
