<?xml version="1.0" encoding="UTF-8" standalone="no"?>
<!-- Created with Inkscape (http://www.inkscape.org/) -->
<svg
   xmlns:dc="http://purl.org/dc/elements/1.1/"
   xmlns:cc="http://creativecommons.org/ns#"
   xmlns:rdf="http://www.w3.org/1999/02/22-rdf-syntax-ns#"
   xmlns:svg="http://www.w3.org/2000/svg"
   xmlns="http://www.w3.org/2000/svg"
   xmlns:sodipodi="http://sodipodi.sourceforge.net/DTD/sodipodi-0.dtd"
   xmlns:inkscape="http://www.inkscape.org/namespaces/inkscape"
   width="744.09448819"
   height="1052.3622047"
   id="svg2"
   sodipodi:version="0.32"
   inkscape:version="0.46"
   sodipodi:docname="vector-art.svg"
   inkscape:output_extension="org.inkscape.output.svg.inkscape">
  <defs
     id="defs4">
    <inkscape:perspective
       sodipodi:type="inkscape:persp3d"
       inkscape:vp_x="0 : 526.18109 : 1"
       inkscape:vp_y="0 : 1000 : 0"
       inkscape:vp_z="744.09448 : 526.18109 : 1"
       inkscape:persp3d-origin="372.04724 : 350.78739 : 1"
       id="perspective10" />
  </defs>
  <sodipodi:namedview
     id="base"
     pagecolor="#ffffff"
     bordercolor="#666666"
     borderopacity="1.0"
     gridtolerance="10000"
     guidetolerance="10"
     objecttolerance="10"
     inkscape:pageopacity="0.0"
     inkscape:pageshadow="2"
     inkscape:zoom="1.4142137"
     inkscape:cx="546.22963"
     inkscape:cy="364.59095"
     inkscape:document-units="px"
     inkscape:current-layer="layer1"
     showgrid="false"
     inkscape:window-width="1280"
     inkscape:window-height="974"
     inkscape:window-x="1280"
     inkscape:window-y="24" />
  <metadata
     id="metadata7">
    <rdf:RDF>
      <cc:Work
         rdf:about="">
        <dc:format>image/svg+xml</dc:format>
        <dc:type
           rdf:resource="http://purl.org/dc/dcmitype/StillImage" />
      </cc:Work>
    </rdf:RDF>
  </metadata>
  <g
     inkscape:label="Layer 1"
     inkscape:groupmode="layer"
     id="layer1">
    <path
       style="fill:none;fill-rule:evenodd;stroke:#000000;stroke-width:6;stroke-linecap:square;stroke-linejoin:round;stroke-opacity:1;stroke-miterlimit:4;stroke-dasharray:none"
       d="M 10,942.36218 L 20,942.36218 L 60,992.36218 L 20,1042.3622 L 10,1042.3622"
       id="path3155"
       sodipodi:nodetypes="ccccc" />
    <rect
       style="opacity:1;fill:#f6e50a;fill-opacity:1;stroke:none;stroke-width:6;stroke-linecap:square;stroke-linejoin:round;stroke-miterlimit:4;stroke-dasharray:none;stroke-opacity:1"
       id="rect3177"
       width="50"
       height="100"
       x="100"
       y="942.36218" />
    <g
       id="g3271"
       transform="matrix(0.309119,0,0,0.309119,184.77521,652.93668)">
      <path
         transform="translate(-35.714286,-57.142857)"
         d="M 727.14285,570.93359 A 320,320 0 1 1 87.142853,570.93359 A 320,320 0 1 1 727.14285,570.93359 z"
         sodipodi:ry="320"
         sodipodi:rx="320"
         sodipodi:cy="570.93359"
         sodipodi:cx="407.14285"
         id="path2383"
         style="opacity:1;fill:#156cbc;fill-opacity:1;stroke:#000000;stroke-width:7;stroke-linecap:butt;stroke-linejoin:miter;stroke-miterlimit:4;stroke-dasharray:none;stroke-opacity:1"
         sodipodi:type="arc" />
      <g
         inkscape:export-ydpi="92.193748"
         inkscape:export-xdpi="92.193748"
         inkscape:export-filename="/home/kixx/Documents/FireworksProject/Graphics/fireworks-pop.png"
         transform="translate(150.97052,157.78192)"
         id="g2439">
        <path
           style="fill:#d43e14;fill-opacity:1;fill-rule:evenodd;stroke:#000000;stroke-width:7;stroke-linecap:round;stroke-linejoin:round;stroke-miterlimit:4;stroke-dasharray:none;stroke-opacity:1"
           d="M 375.03253,108.76041 C 375.03253,108.76041 349.10269,170.36845 374.53859,235.99859 C 407.17941,320.21902 465.79251,312.92463 465.79251,312.92463 C 465.79251,312.92463 392.92828,368.22356 385.80691,415.55462 C 373.66982,496.22197 411.5288,557.37808 411.5288,557.37808 C 411.5288,557.37808 376.02251,491.39394 268.37013,497.34848 C 164.47563,503.09516 145.78121,608.97155 145.78121,608.97155 C 145.78121,608.97155 136.11602,530.8465 73.429465,480.44012 C 10.742902,430.03374 -64.876414,426.37994 -64.876414,426.37994 C -64.876414,426.37994 11.545455,409.5768 45.492245,330.84502 C 75.627068,260.95419 30.592564,190.13821 30.592564,190.13821 C 30.592564,190.13821 88.009048,254.53731 194.98704,239.91288 C 297.9528,225.83694 375.03253,108.76041 375.03253,108.76041 z"
           id="path2457"
           sodipodi:nodetypes="cscscscscscsc"
           inkscape:export-filename="/home/kixx/Documents/FireworksProject/Logo/spark-100.png"
           inkscape:export-xdpi="16.679445"
           inkscape:export-ydpi="16.679445" />
        <path
           style="fill:#f8e60a;fill-opacity:1;fill-rule:evenodd;stroke:#000000;stroke-width:7;stroke-linecap:butt;stroke-linejoin:round;stroke-miterlimit:4;stroke-dasharray:none;stroke-opacity:1"
           d="M 110.50305,295.03384 C 110.50305,295.03384 148.99263,318.44632 215.34153,304.16535 C 281.69042,289.88436 308.80594,246.09155 308.80594,246.09155 C 308.80594,246.09155 300.54345,253.79106 317.66317,294.02985 C 334.78289,334.26864 367.78845,331.91674 367.78845,331.91674 C 367.78845,331.91674 339.22973,335.06475 325.51497,388.59968 C 311.80023,442.13459 336.77643,458.99735 336.77643,458.99735 C 336.77643,458.99735 291.66892,423.84453 233.58251,430.42601 C 175.49609,437.00749 152.82741,481.5964 152.82741,481.5964 C 152.82741,481.5964 164.10149,451.94817 117.73953,416.11182 C 84.391648,390.33493 58.390747,404.10985 58.390747,404.10985 C 58.390747,404.10985 90.322438,388.54317 110.9852,353.86405 C 130.0111,321.93213 111.75749,295.71737 110.50305,295.03384 z"
           id="path3229"
           sodipodi:nodetypes="cscscscscscsc"
           inkscape:export-xdpi="90"
           inkscape:export-ydpi="90" />
      </g>
    </g>
    <g
       id="g3308">
      <path
         inkscape:export-ydpi="16.679445"
         inkscape:export-xdpi="16.679445"
         inkscape:export-filename="/home/kixx/Documents/FireworksProject/Logo/spark-100.png"
         sodipodi:nodetypes="cscscscscscsc"
         id="path3298"
         d="M 147.06613,696.6555 C 147.06613,696.6555 139.05072,715.69971 146.91344,735.98724 C 157.00334,762.02137 175.12176,759.76654 175.12176,759.76654 C 175.12176,759.76654 152.59805,776.86049 150.3967,791.49142 C 146.64489,816.42723 158.34782,835.33174 158.34782,835.33174 C 158.34782,835.33174 147.37215,814.93479 114.09476,816.77545 C 81.978991,818.55186 76.200191,851.28027 76.200191,851.28027 C 76.200191,851.28027 73.212497,827.13033 53.834892,811.54876 C 34.457284,795.96719 11.081917,794.83773 11.081917,794.83773 C 11.081917,794.83773 34.705369,789.64356 45.198966,765.30607 C 54.514213,743.70149 40.593192,721.81092 40.593192,721.81092 C 40.593192,721.81092 58.341718,741.71791 91.410648,737.19722 C 123.23932,732.84608 147.06613,696.6555 147.06613,696.6555 z"
         style="fill:#d43e14;fill-opacity:1;fill-rule:evenodd;stroke:#000000;stroke-width:2.1638329;stroke-linecap:round;stroke-linejoin:round;stroke-miterlimit:4;stroke-dasharray:none;stroke-opacity:1" />
      <path
         inkscape:export-ydpi="90"
         inkscape:export-xdpi="90"
         sodipodi:nodetypes="cscscscscscsc"
         id="path3300"
         d="M 65.295041,754.23616 C 65.295041,754.23616 77.192902,761.4734 97.702607,757.05888 C 118.21231,752.64435 126.59423,739.10716 126.59423,739.10716 C 126.59423,739.10716 124.04014,741.48723 129.33217,753.9258 C 134.6242,766.36438 144.82685,765.63736 144.82685,765.63736 C 144.82685,765.63736 135.9988,766.61047 131.75931,783.15913 C 127.51982,799.70779 135.24044,804.92039 135.24044,804.92039 C 135.24044,804.92039 121.29685,794.05399 103.34124,796.08845 C 85.385625,798.12291 78.378305,811.90619 78.378305,811.90619 C 78.378305,811.90619 81.863337,802.74136 67.531975,791.66366 C 57.223511,783.69553 49.186138,787.95362 49.186138,787.95362 C 49.186138,787.95362 59.056831,783.14167 65.444083,772.42169 C 71.32535,762.55093 65.682813,754.44745 65.295041,754.23616 z"
         style="fill:#f8e60a;fill-opacity:1;fill-rule:evenodd;stroke:#000000;stroke-width:2.1638329;stroke-linecap:butt;stroke-linejoin:round;stroke-miterlimit:4;stroke-dasharray:none;stroke-opacity:1" />
    </g>
    <path
       style="fill:#f8e60a;fill-opacity:1;fill-rule:evenodd;stroke:#000000;stroke-width:2.1638329;stroke-linecap:butt;stroke-linejoin:round;stroke-miterlimit:4;stroke-dasharray:none;stroke-opacity:1"
       d="M 444.28854,763.09166 C 444.28854,763.09166 456.1864,770.3289 476.6961,765.91438 C 497.20581,761.49985 505.58773,747.96266 505.58773,747.96266 C 505.58773,747.96266 503.03364,750.34273 508.32567,762.7813 C 513.6177,775.21988 523.82035,774.49286 523.82035,774.49286 C 523.82035,774.49286 514.9923,775.46597 510.75281,792.01463 C 506.51332,808.56329 514.23394,813.77589 514.23394,813.77589 C 514.23394,813.77589 500.29035,802.90949 482.33474,804.94395 C 464.37912,806.97841 457.3718,820.76169 457.3718,820.76169 C 457.3718,820.76169 460.85683,811.59686 446.52547,800.51916 C 436.21701,792.55103 428.17963,796.80912 428.17963,796.80912 C 428.17963,796.80912 438.05033,791.99717 444.43758,781.27719 C 450.31885,771.40643 444.67631,763.30295 444.28854,763.09166 z"
       id="path3304"
       sodipodi:nodetypes="cscscscscscsc"
       inkscape:export-xdpi="90"
       inkscape:export-ydpi="90" />
    <path
       style="fill:#d43e14;fill-opacity:1;fill-rule:evenodd;stroke:#000000;stroke-width:2.1638329;stroke-linecap:round;stroke-linejoin:round;stroke-miterlimit:4;stroke-dasharray:none;stroke-opacity:1"
       d="M 689.96426,674.04979 C 689.96426,674.04979 681.94885,693.094 689.81157,713.38153 C 699.90147,739.41566 718.01989,737.16083 718.01989,737.16083 C 718.01989,737.16083 695.49618,754.25478 693.29483,768.88571 C 689.54302,793.82152 701.24595,812.72603 701.24595,812.72603 C 701.24595,812.72603 690.27028,792.32908 656.99289,794.16974 C 624.87712,795.94615 619.09832,828.67456 619.09832,828.67456 C 619.09832,828.67456 616.11063,804.52462 596.73302,788.94305 C 577.35542,773.36148 553.98005,772.23202 553.98005,772.23202 C 553.98005,772.23202 577.6035,767.03785 588.0971,742.70036 C 597.41234,721.09578 583.49133,699.20521 583.49133,699.20521 C 583.49133,699.20521 601.23985,719.1122 634.30878,714.59151 C 666.13745,710.24037 689.96426,674.04979 689.96426,674.04979 z"
       id="path3306"
       sodipodi:nodetypes="cscscscscscsc"
       inkscape:export-filename="/home/kixx/Documents/FireworksProject/Logo/spark-100.png"
       inkscape:export-xdpi="16.679445"
       inkscape:export-ydpi="16.679445" />
    <path
       style="fill:#f6e50a;fill-opacity:1;fill-rule:evenodd;stroke:none;stroke-width:1.63163601999999996;stroke-linecap:round;stroke-linejoin:round;stroke-miterlimit:4;stroke-dasharray:none;stroke-opacity:1"
       d="M 244.97312,933.03834 C 244.97312,933.03834 252.00138,943.95043 268.20808,946.32509 C 289.31028,949.41704 300.09453,938.54716 300.09453,938.54716 C 300.09453,938.54716 297.1313,957.99931 300.99843,968.66271 C 307.08998,985.45985 319.51853,992.10823 319.51853,992.10823 C 319.51853,992.10823 301.60372,997.46234 292.00932,1008.7968 C 280.78047,1022.0621 282.54316,1038.5277 282.54316,1038.5277 C 282.54316,1038.5277 273.00928,1026.373 254.35857,1025.2344 C 235.70787,1024.0959 220.88194,1035.6102 220.88194,1035.6102 C 220.88194,1035.6102 229.77013,1018.6053 224.99012,998.95135 C 220.74688,981.50444 202.4918,974.07101 202.4918,974.07101 C 202.4918,974.07101 222.81083,974.75445 233.91955,964.03666 C 248.59102,949.88151 244.97312,933.03834 244.97312,933.03834 z"
       id="path3312"
       sodipodi:nodetypes="cscscscscscsc"
       inkscape:export-filename="/home/kixx/Projects/GAE/kixxname/assets/spark.png"
       inkscape:export-xdpi="16.679445"
       inkscape:export-ydpi="16.679445" />
    <path
       style="fill:#ffffff;fill-opacity:1;fill-rule:evenodd;stroke:#000000;stroke-width:2.83431268;stroke-linecap:butt;stroke-linejoin:miter;stroke-miterlimit:4;stroke-dasharray:none;stroke-opacity:1"
       d="M 543.76095,850.72735 L 523.56489,880.54998 L 476.44073,864.64457 L 481.15315,896.853 L 427.29697,897.64827 L 456.91787,925.08509 L 409.12051,940.99048 L 456.91787,957.29351 L 426.62377,984.73032 L 482.49955,983.53742 L 474.42113,1016.5411 L 524.23808,1001.431 L 539.04853,1030.4584 L 577.42106,1004.2145 L 618.4864,1026.482 L 625.21841,993.87601 L 675.70858,1004.6121 L 658.87852,972.006 L 712.06149,967.63203 L 671.66936,942.58102 L 716.77391,919.91583 L 660.22493,910.77023 L 681.76739,882.53814 L 623.87201,887.30977 L 618.48639,855.49897 L 573.38184,876.97126 L 543.76095,850.72735 z"
       id="path3732"
       sodipodi:nodetypes="ccccccccccccccccccccccccccc" />
    <path
       style="fill:#ffffff;fill-opacity:1;fill-rule:evenodd;stroke:#000000;stroke-width:4.2733202;stroke-linecap:butt;stroke-linejoin:miter;stroke-miterlimit:4;stroke-dasharray:none;stroke-opacity:1"
       d="M 640.43762,39.896644 C 617.95276,40.164804 596.58359,43.648524 576.07074,49.530684 C 568.90853,68.289224 560.96064,99.401784 576.07074,132.34534 C 611.10012,139.76898 646.13835,138.12201 681.16767,135.37863 C 684.55647,144.96921 680.72794,161.21507 675.99775,178.28355 C 691.24446,160.50981 700.02895,147.35175 702.57249,133.62351 C 705.56497,133.37951 708.56539,133.12977 711.55788,132.89858 C 720.43625,107.01902 723.64819,79.924954 711.55788,49.530684 C 686.53581,42.575844 662.92248,39.628474 640.43762,39.896644 z"
       id="path7492"
       sodipodi:nodetypes="ccccccccc" />
    <path
       style="fill:#f8e60a;fill-opacity:1;fill-rule:evenodd;stroke:#000000;stroke-width:2;stroke-linecap:butt;stroke-linejoin:round;stroke-miterlimit:4;stroke-dasharray:none;stroke-opacity:1"
       d="M 114.61731,343.45894 L 114.61731,328.45894 L 379.61732,328.45894 C 379.61732,328.45894 394.61732,324.77264 394.61732,313.45894 C 394.61732,302.14523 394.61732,223.45894 394.61732,223.45894 C 394.61732,223.45894 391.87384,208.45894 379.61732,208.45894 C 367.3608,208.45894 61.617311,208.45894 61.617311,208.45894 C 61.617311,208.45894 46.617311,210.25962 46.617311,223.45894 C 46.617311,234.77265 46.617311,313.45894 46.617311,313.45894 C 46.617311,313.45894 49.360791,328.45894 61.617311,328.45894 C 73.873831,328.45894 94.617311,328.45894 94.617311,328.45894 L 114.61731,343.45894 z"
       id="path2403"
       sodipodi:nodetypes="cccscscscscc" />
    <path
       style="fill:#f8e60a;fill-opacity:1;fill-rule:evenodd;stroke:#000000;stroke-width:10;stroke-linecap:butt;stroke-linejoin:round;stroke-miterlimit:4;stroke-dasharray:none;stroke-opacity:1"
       d="M 474.81651,34.877046 C 493.19051,35.084707 510.6528,37.782485 527.41532,42.337604 C 533.26808,56.864137 539.76287,80.957561 527.41532,106.46891 C 505.30682,109.12218 511.10621,109.39355 504.05287,109.97645 C 498.19737,116.63098 495.86421,121.09968 499.10628,135.47802 C 471.21571,130.21032 463.15548,126.97221 447.40917,110.54825 C 436.58676,111.13168 419.14441,107.07637 416.69903,106.89734 C 409.44387,86.856321 406.81917,65.874795 416.69903,42.337604 C 437.14636,36.951806 456.44252,34.669376 474.81651,34.877046 z"
       id="path4184"
       sodipodi:nodetypes="ccccccccc"
       inkscape:export-filename="/home/kixx/Projects/GAE/kixxname/google-app-engine/static/css/img/talk-bubble-48.png"
       inkscape:export-xdpi="33.359283"
       inkscape:export-ydpi="33.359283" />
    <path
       style="fill:#f6eb5a;fill-opacity:1;fill-rule:evenodd;stroke:#000000;stroke-width:8;stroke-linecap:butt;stroke-linejoin:round;stroke-miterlimit:4;stroke-dasharray:none;stroke-opacity:1"
       d="M 192.12704,31.691329 C 143.36574,31.955663 97.023951,35.38968 52.53919,41.187918 C 37.007018,59.678824 19.770998,90.347495 52.53919,122.82104 C 128.50491,130.13877 204.48981,128.5153 280.45538,125.81106 C 287.80443,135.26481 279.50177,151.27888 269.24375,168.10384 C 302.3082,150.58369 321.35849,137.61335 326.87449,124.08098 C 333.36406,123.84046 339.87086,123.59428 346.36046,123.36639 C 365.61434,97.856059 372.57985,71.148544 346.36046,41.187918 C 292.09689,34.332304 240.88835,31.426985 192.12704,31.691329 z"
       id="path4188"
       sodipodi:nodetypes="ccccccccc"
       inkscape:export-filename="/home/kixx/Projects/GAE/kixxname/google-app-engine/static/css/img/talk-bubble-220.png"
       inkscape:export-xdpi="79.762398"
       inkscape:export-ydpi="79.762398" />
    <path
       style="fill:#f6eb5a;fill-opacity:1;fill-rule:evenodd;stroke:#333333;stroke-width:3;stroke-linecap:butt;stroke-linejoin:round;stroke-miterlimit:4;stroke-dasharray:none;stroke-opacity:1"
       d="M 471.41105,235.94783 C 471.41105,235.94783 532.50611,227.97624 574.9834,228.50269 C 617.46068,229.02915 678.55574,235.94783 678.55574,235.94783 L 678.55574,310.39923 C 678.55574,310.39923 623.31962,317.84438 574.9834,317.84438 C 526.64717,317.84438 471.41105,310.39923 471.41105,310.39923 L 471.41105,235.94783 z"
       id="path4212"
       sodipodi:nodetypes="csccscc"
       inkscape:export-filename="/home/kixx/Projects/GAE/kixxname/google-app-engine/static/css/img/frame-400.png"
       inkscape:export-xdpi="185.13177"
       inkscape:export-ydpi="185.13177" />
    <g
       id="g3309"
       inkscape:export-xdpi="47.464329"
       inkscape:export-ydpi="47.464329"
       inkscape:export-filename="/home/kixx/Projects/GAE/kixxname/google-app-engine/static/img/logo.png"
       transform="matrix(0.6659372,0,0,0.6443241,256.92112,93.931125)">
      <g
         id="g3305">
        <path
           style="fill:#d43e14;fill-opacity:1;fill-rule:evenodd;stroke:#000000;stroke-width:5;stroke-linecap:round;stroke-linejoin:round;stroke-miterlimit:4;stroke-dasharray:none;stroke-opacity:1"
           d="M 210.77446,412.79243 C 210.77446,412.79243 205.01471,426.73562 210.67109,441.51686 C 217.9297,460.48502 230.95598,458.75852 230.95598,458.75852 C 230.95598,458.75852 214.76483,471.34134 213.18451,482.03593 C 210.49113,500.26294 218.9083,514.01727 218.9083,514.01727 C 218.9083,514.01727 211.01377,499.16982 187.08854,500.6606 C 163.99847,502.09934 159.84901,526.02618 159.84901,526.02618 C 159.84901,526.02618 157.697,508.40277 143.7625,497.10897 C 129.82799,485.81517 113.02156,485.09328 113.02156,485.09328 C 113.02156,485.09328 130.00532,481.19597 137.54597,463.37621 C 144.23985,447.55748 134.22745,431.63222 134.22745,431.63222 C 134.22745,431.63222 146.99139,446.09202 170.76631,442.64494 C 193.64954,439.32716 210.77446,412.79243 210.77446,412.79243 z"
           id="path2703"
           sodipodi:nodetypes="cscscscscscsc" />
        <path
           style="fill:#ffffff;fill-opacity:1;fill-rule:evenodd;stroke:#000000;stroke-width:3;stroke-linecap:butt;stroke-linejoin:round;stroke-miterlimit:4;stroke-dasharray:none;stroke-opacity:1"
           d="M 151.99268,455.20341 C 151.99268,455.20341 160.5481,460.43633 175.29329,457.1221 C 190.03848,453.80787 196.06265,443.88481 196.06265,443.88481 C 196.06265,443.88481 194.22672,445.63421 198.03357,454.69473 C 201.84042,463.75525 209.17572,463.17938 209.17572,463.17938 C 209.17572,463.17938 202.82876,463.92892 199.78338,476.03299 C 196.73801,488.13705 202.28977,491.90979 202.28977,491.90979 C 202.28977,491.90979 192.26294,484.03552 179.35368,485.60035 C 166.44442,487.16519 161.40859,497.26191 161.40859,497.26191 C 161.40859,497.26191 163.91274,490.55353 153.60708,482.52666 C 146.19428,476.75298 140.41633,479.89804 140.41633,479.89804 C 140.41633,479.89804 147.5123,476.34042 152.10281,468.48355 C 156.32967,461.24908 152.27151,455.356 151.99268,455.20341 z"
           id="path2705"
           sodipodi:nodetypes="cscscscscscsc"
           inkscape:export-xdpi="90"
           inkscape:export-ydpi="90" />
      </g>
      <g
         transform="matrix(0.8546509,0,0,0.8363637,10.672135,52.841064)"
         id="g2495">
        <text
           xml:space="preserve"
           style="font-size:64.39683533px;font-style:normal;font-variant:normal;font-weight:normal;font-stretch:normal;fill:#000000;fill-opacity:1;stroke:none;stroke-width:1px;stroke-linecap:butt;stroke-linejoin:miter;stroke-opacity:1;font-family:Comic Book;-inkscape-font-specification:Comic Book"
           x="233.52678"
           y="543.21918"
           id="text2487"
           transform="scale(0.8734553,1.1448783)"><tspan
             sodipodi:role="line"
             id="tspan2489"
             x="233.52678"
             y="543.21918">Computer </tspan></text>
        <text
           xml:space="preserve"
           style="font-size:68.7146759px;font-style:normal;font-variant:normal;font-weight:normal;font-stretch:normal;fill:#000000;fill-opacity:1;stroke:none;stroke-width:1px;stroke-linecap:butt;stroke-linejoin:miter;stroke-opacity:1;font-family:Comic Book;-inkscape-font-specification:Comic Book"
           x="555.50909"
           y="568.89398"
           id="text2491"
           transform="scale(0.9145299,1.093458)"><tspan
             sodipodi:role="line"
             id="tspan2493"
             x="555.50909"
             y="568.89398">Systems</tspan></text>
      </g>
      <text
         transform="scale(1.0450524,0.9568898)"
         id="text2501"
         y="535.6333"
         x="238.83098"
         style="font-size:109.026474px;font-style:normal;font-variant:normal;font-weight:normal;font-stretch:normal;fill:#000000;fill-opacity:1;stroke:none;stroke-width:1px;stroke-linecap:butt;stroke-linejoin:miter;stroke-opacity:1;font-family:BadaBoom BB;-inkscape-font-specification:BadaBoom BB"
         xml:space="preserve"><tspan
           y="535.6333"
           x="238.83098"
           id="tspan2503"
           sodipodi:role="line">fireworks</tspan></text>
    </g>
    <g
       id="g3272"
       inkscape:export-filename="/home/kixx/Projects/GAE/kixxname/google-app-engine/static/img/github.png"
       inkscape:export-xdpi="114.05158"
       inkscape:export-ydpi="114.05158"
       transform="matrix(0.7071068,-0.7071068,0.7071068,0.7071068,-186.76046,421.95073)">
      <rect
         y="355.28586"
         x="15.741616"
         height="38.624104"
         width="313.64667"
         id="rect2495"
         style="opacity:1;fill:#f8e60a;fill-opacity:1;stroke:#000000;stroke-width:2;stroke-linecap:round;stroke-linejoin:round;stroke-miterlimit:4;stroke-dasharray:none;stroke-opacity:1" />
      <text
         transform="scale(0.8763528,1.1410929)"
         id="text3267"
         y="335.35056"
         x="84.059357"
         style="font-size:21.24583626px;font-style:normal;font-variant:normal;font-weight:normal;font-stretch:normal;fill:#000000;fill-opacity:1;stroke:none;stroke-width:1px;stroke-linecap:butt;stroke-linejoin:miter;stroke-opacity:1;font-family:Comic Book;-inkscape-font-specification:Comic Book"
         xml:space="preserve"><tspan
           y="335.35056"
           x="84.059357"
           id="tspan3269"
           sodipodi:role="line">Fork Me on GitHub</tspan></text>
    </g>
    <text
       xml:space="preserve"
       style="font-size:18px;font-style:normal;font-variant:normal;font-weight:normal;font-stretch:normal;fill:#000000;fill-opacity:1;stroke:none;stroke-width:1px;stroke-linecap:butt;stroke-linejoin:miter;stroke-opacity:1;font-family:BorisBlackBloxx;-inkscape-font-specification:BorisBlackBloxx"
       x="565.68536"
       y="585.67175"
       id="text3299"><tspan
         sodipodi:role="line"
         id="tspan3301"
         x="565.68536"
         y="585.67175" /></text>
    <path
       style="fill:#d74f28;fill-opacity:1;fill-rule:evenodd;stroke:none;stroke-width:1px;stroke-linecap:butt;stroke-linejoin:miter;stroke-opacity:1"
       d="M 359.91731,522.03215 L 380.42341,557.38748 L 354.96758,572.23673 L 371.93813,594.86415 L 359.21021,624.56262 L 384.66605,633.755 L 389.61581,661.33217 L 416.48586,655.67531 L 426.38535,683.9596 L 456.08384,666.28192 L 474.4686,691.03065 L 499.92444,666.98902 L 525.38029,685.37379 L 539.52242,656.38243 L 565.68537,673.35298 L 577.70618,642.24029 L 599.62649,658.50374 L 599.62649,521.32504 L 359.91731,522.03215 z"
       id="path3321"
       sodipodi:nodetypes="ccccccccccccccccccc"
       inkscape:export-filename="/home/kixx/Projects/GAE/kixxname/assets/programming-action.png"
       inkscape:export-xdpi="132.58252"
       inkscape:export-ydpi="132.58252" />
    <text
       xml:space="preserve"
       style="font-size:29.60110092px;font-style:normal;font-variant:normal;font-weight:normal;font-stretch:normal;fill:#ffffff;fill-opacity:0.94117647;stroke:none;stroke-width:1px;stroke-linecap:butt;stroke-linejoin:miter;stroke-opacity:1;font-family:BorisBlackBloxx;-inkscape-font-specification:BorisBlackBloxx"
       x="377.10703"
       y="614.32837"
       id="text3283"
       transform="scale(1.0321499,0.9688516)"><tspan
         sodipodi:role="line"
         id="tspan3285"
         x="377.10703"
         y="614.32837">JavaScript</tspan></text>
    <text
       xml:space="preserve"
       style="font-size:18px;font-style:normal;font-variant:normal;font-weight:normal;font-stretch:normal;fill:#ffffff;fill-opacity:1;stroke:none;stroke-width:1px;stroke-linecap:butt;stroke-linejoin:miter;stroke-opacity:1;font-family:BorisBlackBloxx;-inkscape-font-specification:BorisBlackBloxx"
       x="410.82901"
       y="565.75146"
       id="text3287"><tspan
         sodipodi:role="line"
         id="tspan3289"
         x="410.82901"
         y="565.75146">Python</tspan></text>
    <text
       xml:space="preserve"
       style="font-size:18px;font-style:normal;font-variant:normal;font-weight:normal;font-stretch:normal;fill:#ffffff;fill-opacity:1;stroke:none;stroke-width:1px;stroke-linecap:butt;stroke-linejoin:miter;stroke-opacity:1;font-family:Comic Book;-inkscape-font-specification:Comic Book"
       x="434.87064"
       y="647.19"
       id="text3291"><tspan
         sodipodi:role="line"
         id="tspan3293"
         x="434.87064"
         y="647.19">and more</tspan></text>
    <text
       xml:space="preserve"
       style="font-size:21.12491035px;font-style:normal;font-variant:normal;font-weight:normal;font-stretch:normal;fill:#ffffff;fill-opacity:1;stroke:none;stroke-width:1px;stroke-linecap:butt;stroke-linejoin:miter;stroke-opacity:1;font-family:BorisBlackBloxx;-inkscape-font-specification:BorisBlackBloxx"
       x="526.62299"
       y="530.39886"
       id="text3295"
       transform="scale(0.9384841,1.0655481)"><tspan
         sodipodi:role="line"
         id="tspan3297"
         x="526.62299"
         y="530.39886">PHP</tspan></text>
    <text
       xml:space="preserve"
       style="font-size:18px;font-style:normal;font-variant:normal;font-weight:normal;font-stretch:normal;fill:#ffffff;fill-opacity:1;stroke:none;stroke-width:1px;stroke-linecap:butt;stroke-linejoin:miter;stroke-opacity:1;font-family:BorisBlackBloxx;-inkscape-font-specification:BorisBlackBloxx"
       x="499.92447"
       y="621.73419"
       id="text3303"><tspan
         sodipodi:role="line"
         id="tspan3305"
         x="499.92447"
         y="621.73419">Perl</tspan></text>
    <text
       xml:space="preserve"
       style="font-size:18px;font-style:normal;font-variant:normal;font-weight:normal;font-stretch:normal;fill:#ffffff;fill-opacity:1;stroke:none;stroke-width:1px;stroke-linecap:butt;stroke-linejoin:miter;stroke-opacity:1;font-family:BorisBlackBloxx;-inkscape-font-specification:BorisBlackBloxx"
       x="404.46506"
       y="622.31995"
       id="text3307"><tspan
         sodipodi:role="line"
         id="tspan3309"
         x="404.46506"
         y="622.31995">MySQL</tspan></text>
  </g>
</svg>
